<mxfile host="app.diagrams.net" modified="2023-05-07T08:38:00.941Z" agent="Mozilla/5.0 (Windows NT 10.0; Win64; x64) AppleWebKit/537.36 (KHTML, like Gecko) Chrome/112.0.0.0 Safari/537.36" etag="sUYGb7T1norGZjUqcGfG" version="21.2.9" type="device">
  <diagram id="C5RBs43oDa-KdzZeNtuy" name="Page-1">
    <mxGraphModel dx="1434" dy="796" grid="1" gridSize="10" guides="1" tooltips="1" connect="1" arrows="1" fold="1" page="1" pageScale="1" pageWidth="827" pageHeight="1169" math="0" shadow="0">
      <root>
        <mxCell id="WIyWlLk6GJQsqaUBKTNV-0" />
        <mxCell id="WIyWlLk6GJQsqaUBKTNV-1" parent="WIyWlLk6GJQsqaUBKTNV-0" />
        <mxCell id="IC-82JVB1G__YDiCtuwO-1" value="str - исходная строка&lt;br&gt;len - длина массива arr&lt;br&gt;n = 0 - счётчик символа &#39;a&#39;" style="text;html=1;strokeColor=none;fillColor=none;align=center;verticalAlign=middle;whiteSpace=wrap;rounded=0;" vertex="1" parent="WIyWlLk6GJQsqaUBKTNV-1">
          <mxGeometry x="115" y="80" width="170" height="40" as="geometry" />
        </mxCell>
        <mxCell id="IC-82JVB1G__YDiCtuwO-19" value="" style="edgeStyle=orthogonalEdgeStyle;rounded=0;orthogonalLoop=1;jettySize=auto;html=1;" edge="1" parent="WIyWlLk6GJQsqaUBKTNV-1" source="IC-82JVB1G__YDiCtuwO-15" target="IC-82JVB1G__YDiCtuwO-18">
          <mxGeometry relative="1" as="geometry" />
        </mxCell>
        <mxCell id="IC-82JVB1G__YDiCtuwO-15" value="Начало" style="ellipse;whiteSpace=wrap;html=1;aspect=fixed;" vertex="1" parent="WIyWlLk6GJQsqaUBKTNV-1">
          <mxGeometry x="160" y="130" width="80" height="80" as="geometry" />
        </mxCell>
        <mxCell id="IC-82JVB1G__YDiCtuwO-21" value="" style="edgeStyle=orthogonalEdgeStyle;rounded=0;orthogonalLoop=1;jettySize=auto;html=1;" edge="1" parent="WIyWlLk6GJQsqaUBKTNV-1" source="IC-82JVB1G__YDiCtuwO-18" target="IC-82JVB1G__YDiCtuwO-20">
          <mxGeometry relative="1" as="geometry" />
        </mxCell>
        <mxCell id="IC-82JVB1G__YDiCtuwO-18" value="записываем в n кол-во вхождений символа &#39;a&#39; в строке" style="rounded=1;whiteSpace=wrap;html=1;" vertex="1" parent="WIyWlLk6GJQsqaUBKTNV-1">
          <mxGeometry x="140" y="230" width="120" height="60" as="geometry" />
        </mxCell>
        <mxCell id="IC-82JVB1G__YDiCtuwO-23" value="" style="edgeStyle=orthogonalEdgeStyle;rounded=0;orthogonalLoop=1;jettySize=auto;html=1;" edge="1" parent="WIyWlLk6GJQsqaUBKTNV-1" source="IC-82JVB1G__YDiCtuwO-20" target="IC-82JVB1G__YDiCtuwO-22">
          <mxGeometry relative="1" as="geometry" />
        </mxCell>
        <mxCell id="IC-82JVB1G__YDiCtuwO-33" value="" style="edgeStyle=orthogonalEdgeStyle;rounded=0;orthogonalLoop=1;jettySize=auto;html=1;" edge="1" parent="WIyWlLk6GJQsqaUBKTNV-1" source="IC-82JVB1G__YDiCtuwO-20" target="IC-82JVB1G__YDiCtuwO-32">
          <mxGeometry relative="1" as="geometry" />
        </mxCell>
        <mxCell id="IC-82JVB1G__YDiCtuwO-20" value="от i до len+n&lt;br&gt;с шагом 1" style="shape=hexagon;perimeter=hexagonPerimeter2;whiteSpace=wrap;html=1;fixedSize=1;rounded=1;" vertex="1" parent="WIyWlLk6GJQsqaUBKTNV-1">
          <mxGeometry x="140" y="310" width="120" height="80" as="geometry" />
        </mxCell>
        <mxCell id="IC-82JVB1G__YDiCtuwO-25" value="" style="edgeStyle=orthogonalEdgeStyle;rounded=0;orthogonalLoop=1;jettySize=auto;html=1;" edge="1" parent="WIyWlLk6GJQsqaUBKTNV-1" source="IC-82JVB1G__YDiCtuwO-22" target="IC-82JVB1G__YDiCtuwO-24">
          <mxGeometry relative="1" as="geometry" />
        </mxCell>
        <mxCell id="IC-82JVB1G__YDiCtuwO-22" value="если i-ый символ строки - &#39;a&#39;" style="rhombus;whiteSpace=wrap;html=1;rounded=1;" vertex="1" parent="WIyWlLk6GJQsqaUBKTNV-1">
          <mxGeometry x="135" y="410" width="130" height="80" as="geometry" />
        </mxCell>
        <mxCell id="IC-82JVB1G__YDiCtuwO-27" value="" style="edgeStyle=orthogonalEdgeStyle;rounded=0;orthogonalLoop=1;jettySize=auto;html=1;" edge="1" parent="WIyWlLk6GJQsqaUBKTNV-1" source="IC-82JVB1G__YDiCtuwO-24" target="IC-82JVB1G__YDiCtuwO-26">
          <mxGeometry relative="1" as="geometry" />
        </mxCell>
        <mxCell id="IC-82JVB1G__YDiCtuwO-24" value="записываем в str1 все символы исходной строки от 0 до i+1" style="whiteSpace=wrap;html=1;rounded=1;" vertex="1" parent="WIyWlLk6GJQsqaUBKTNV-1">
          <mxGeometry x="140" y="510" width="120" height="60" as="geometry" />
        </mxCell>
        <mxCell id="IC-82JVB1G__YDiCtuwO-29" value="" style="edgeStyle=orthogonalEdgeStyle;rounded=0;orthogonalLoop=1;jettySize=auto;html=1;" edge="1" parent="WIyWlLk6GJQsqaUBKTNV-1" source="IC-82JVB1G__YDiCtuwO-26" target="IC-82JVB1G__YDiCtuwO-28">
          <mxGeometry relative="1" as="geometry" />
        </mxCell>
        <mxCell id="IC-82JVB1G__YDiCtuwO-26" value="записываем в str2 все символы исходной строки от i+1 до len+1" style="whiteSpace=wrap;html=1;rounded=1;" vertex="1" parent="WIyWlLk6GJQsqaUBKTNV-1">
          <mxGeometry x="140" y="600" width="120" height="60" as="geometry" />
        </mxCell>
        <mxCell id="IC-82JVB1G__YDiCtuwO-28" value="склеиваем строки str1,&quot;b&quot;,str2, результат записываем в str" style="whiteSpace=wrap;html=1;rounded=1;" vertex="1" parent="WIyWlLk6GJQsqaUBKTNV-1">
          <mxGeometry x="140" y="690" width="120" height="60" as="geometry" />
        </mxCell>
        <mxCell id="IC-82JVB1G__YDiCtuwO-30" value="" style="endArrow=classic;html=1;rounded=0;exitX=0;exitY=0.5;exitDx=0;exitDy=0;" edge="1" parent="WIyWlLk6GJQsqaUBKTNV-1" source="IC-82JVB1G__YDiCtuwO-28">
          <mxGeometry width="50" height="50" relative="1" as="geometry">
            <mxPoint x="40" y="400" as="sourcePoint" />
            <mxPoint x="140" y="350" as="targetPoint" />
            <Array as="points">
              <mxPoint x="80" y="720" />
              <mxPoint x="80" y="540" />
              <mxPoint x="80" y="350" />
            </Array>
          </mxGeometry>
        </mxCell>
        <mxCell id="IC-82JVB1G__YDiCtuwO-31" value="" style="endArrow=classic;html=1;rounded=0;exitX=0;exitY=0.5;exitDx=0;exitDy=0;" edge="1" parent="WIyWlLk6GJQsqaUBKTNV-1" source="IC-82JVB1G__YDiCtuwO-22">
          <mxGeometry width="50" height="50" relative="1" as="geometry">
            <mxPoint x="10" y="430" as="sourcePoint" />
            <mxPoint x="80" y="450" as="targetPoint" />
          </mxGeometry>
        </mxCell>
        <mxCell id="IC-82JVB1G__YDiCtuwO-35" value="" style="edgeStyle=orthogonalEdgeStyle;rounded=0;orthogonalLoop=1;jettySize=auto;html=1;" edge="1" parent="WIyWlLk6GJQsqaUBKTNV-1" source="IC-82JVB1G__YDiCtuwO-32" target="IC-82JVB1G__YDiCtuwO-34">
          <mxGeometry relative="1" as="geometry" />
        </mxCell>
        <mxCell id="IC-82JVB1G__YDiCtuwO-32" value="выводим str" style="whiteSpace=wrap;html=1;rounded=1;" vertex="1" parent="WIyWlLk6GJQsqaUBKTNV-1">
          <mxGeometry x="285" y="320" width="120" height="60" as="geometry" />
        </mxCell>
        <mxCell id="IC-82JVB1G__YDiCtuwO-34" value="Конец" style="ellipse;whiteSpace=wrap;html=1;rounded=1;" vertex="1" parent="WIyWlLk6GJQsqaUBKTNV-1">
          <mxGeometry x="305" y="410" width="80" height="80" as="geometry" />
        </mxCell>
        <mxCell id="IC-82JVB1G__YDiCtuwO-36" value="ДА" style="text;html=1;strokeColor=none;fillColor=none;align=center;verticalAlign=middle;whiteSpace=wrap;rounded=0;" vertex="1" parent="WIyWlLk6GJQsqaUBKTNV-1">
          <mxGeometry x="200" y="480" width="60" height="30" as="geometry" />
        </mxCell>
        <mxCell id="IC-82JVB1G__YDiCtuwO-37" value="НЕТ" style="text;html=1;strokeColor=none;fillColor=none;align=center;verticalAlign=middle;whiteSpace=wrap;rounded=0;" vertex="1" parent="WIyWlLk6GJQsqaUBKTNV-1">
          <mxGeometry x="100" y="420" width="60" height="30" as="geometry" />
        </mxCell>
      </root>
    </mxGraphModel>
  </diagram>
</mxfile>
